<svg id="Layer_3" enable-background="new 0 0 64 64" height="512" viewBox="0 0 64 64" width="512" xmlns="http://www.w3.org/2000/svg"><g><path d="m62 37h-1v-7c0-2.414-1.721-4.434-4-4.899v-3.101h-2v3.101c-2.279.465-4 2.484-4 4.899v7h-4v-10h1c.553 0 1-.448 1-1v-4c0-.552-.447-1-1-1h-1.051c-.496-7.472-6.476-13.453-13.949-13.949v-2.051h2v-2h-2v-2h-2v2h-2v2h2v2.051c-7.473.496-13.453 6.477-13.949 13.949h-1.051c-.553 0-1 .448-1 1v4c0 .552.447 1 1 1h1v10h-4v-7c0-2.414-1.721-4.434-4-4.899v-3.101h-2v3.101c-2.279.465-4 2.485-4 4.899v7h-1c-.553 0-1 .448-1 1v4c0 .552.447 1 1 1h1v19c0 .552.447 1 1 1h56c.553 0 1-.448 1-1v-19h1c.553 0 1-.448 1-1v-4c0-.552-.447-1-1-1zm-6-10c1.654 0 3 1.346 3 3v1h-6v-1c0-1.654 1.346-3 3-3zm-3 6h6v4h-6zm-8 4h-2v-10h2zm-16-10v10h-6v-10zm2 0h2v10h-2zm4 0h6v10h-6zm9.949-6h-5.99c-.201-3.739-1.509-7.399-3.759-10.4l-1.056-1.408c5.827.974 10.347 5.825 10.805 11.808zm-12.949-11.334 1.601 2.134c1.992 2.656 3.159 5.891 3.358 9.2h-9.918c.199-3.309 1.366-6.543 3.358-9.2zm-2.144-.474-1.056 1.408c-2.25 3.001-3.558 6.661-3.759 10.4h-5.99c.458-5.983 4.978-10.834 10.805-11.808zm-12.856 13.808h30v2h-30zm2 4h2v10h-2zm-11 0c1.654 0 3 1.346 3 3v1h-6v-1c0-1.654 1.346-3 3-3zm-3 6h6v4h-6zm0 10h10v18h-10zm42 0v18h-2v-18zm-4 18h-5v-6c0-3.309-2.691-6-6-6s-6 2.691-6 6v6h-5v-18h22zm-7 0h-8v-6c0-2.206 1.794-4 4-4s4 1.794 4 4zm-17 0h-2v-18h2zm40 0h-10v-18h10zm2-20h-58v-2h58z"/><path d="m52 51h4c.553 0 1-.448 1-1v-4c0-.552-.447-1-1-1h-4c-.553 0-1 .448-1 1v4c0 .552.447 1 1 1zm1-4h2v2h-2z"/><path d="m52 59h4c.553 0 1-.448 1-1v-4c0-.552-.447-1-1-1h-4c-.553 0-1 .448-1 1v4c0 .552.447 1 1 1zm1-4h2v2h-2z"/><path d="m12 45h-4c-.553 0-1 .448-1 1v4c0 .552.447 1 1 1h4c.553 0 1-.448 1-1v-4c0-.552-.447-1-1-1zm-1 4h-2v-2h2z"/><path d="m12 53h-4c-.553 0-1 .448-1 1v4c0 .552.447 1 1 1h4c.553 0 1-.448 1-1v-4c0-.552-.447-1-1-1zm-1 4h-2v-2h2z"/></g></svg>